<?xml version="1.0" encoding="UTF-8"?>
<!DOCTYPE svg PUBLIC "-//W3C//DTD SVG 1.1//EN" "http://www.w3.org/Graphics/SVG/1.1/DTD/svg11.dtd">
<!-- Creator: CorelDRAW -->
<svg xmlns="http://www.w3.org/2000/svg" xml:space="preserve" width="150mm" height="67.6307mm" version="1.1" style="shape-rendering:geometricPrecision; text-rendering:geometricPrecision; image-rendering:optimizeQuality; fill-rule:evenodd; clip-rule:evenodd"
viewBox="0 0 30760.65 13869.09"
 xmlns:xlink="http://www.w3.org/1999/xlink"
 xmlns:xodm="http://www.corel.com/coreldraw/odm/2003">
 <defs>
  <style type="text/css">
   <![CDATA[
    .fil1 {fill:#008DD0}
    .fil0 {fill:#007CC2}
    .fil3 {fill:#373435;fill-rule:nonzero}
    .fil2 {fill:#201E1E;fill-rule:nonzero}
   ]]>
  </style>
 </defs>
 <g id="Camada_x0020_1">
  <metadata id="CorelCorpID_0Corel-Layer"/>
  <g id="_2116642535728">
   <g>
    <path class="fil0" d="M2038.96 2316.87c-1681.95,583.45 -2245.51,2432.55 -1973.87,3347.23 734.99,2475.29 7302.72,5173.65 17010.29,5197.09 -4079.29,-263.62 -8481.22,-1005.79 -11748.29,-2688.05 -1243,-640.05 -3077.46,-1796.67 -3620.8,-3191.27 -340.52,-874.18 -116.48,-1863.54 325.84,-2652.9l6.83 -12.1z"/>
    <path class="fil1" d="M4951.32 0c-570.59,901.7 -796.35,1737.79 -721.26,2516.49 233.49,2419.98 2596.06,4810.27 7257.98,6418.62 2644.19,912.18 6028.04,1573.02 10182.74,1844.94 -7024.5,83.63 -12759.56,-982.74 -16257.41,-2783.84 -1905.13,-981.06 -3137.55,-2084.73 -3528.27,-3087.84 -545.24,-1399.57 360.21,-3579.37 3066.22,-4908.37z"/>
    <path class="fil2" d="M9073.98 4720.94c0,594.19 -426.92,890.48 -1279.97,890.48 -290.11,0 -559.97,-34.25 -808.82,-104.2l111.21 -508.6c246.56,85.54 478.27,127.47 697.61,127.47 242.62,0 417.59,-23.28 523.3,-69.93 106.58,-47.43 160.26,-126.77 160.26,-237.21 0,-115.84 -50.61,-213.09 -150.91,-291.59 -86.31,-70.03 -262.06,-161.02 -526.48,-273.77 -239.54,-102.64 -418.39,-215.39 -535.05,-336.77 -146.99,-153.15 -220.86,-342.94 -220.86,-567.66 0,-261.28 96.47,-465.02 290.11,-612.77 193.63,-146.97 472.03,-220.86 835.17,-220.86 297.85,0 547.46,24.83 749.66,75.43l-84.76 505.5c-204.52,-74.65 -426.16,-111.21 -664.9,-111.21 -358.51,0 -537.35,95.65 -537.35,286.96 0,101.86 41.24,184.32 125.24,248.09 73.11,54.36 231.73,131.39 475.91,230.11 259.72,105.04 454.11,220.08 583.2,346.1 171.91,168.73 257.43,377.19 257.43,624.42zm2966.76 -2157.96c-13.97,510.89 -20.2,1021.03 -20.2,1531.22 0,1008.62 -413.73,1513.28 -1239.57,1513.28 -409.1,0 -716.25,-111.99 -923.09,-335.17 -206.06,-223.18 -309.55,-624.4 -309.55,-1203.01 0,-510.13 -6.95,-1012.56 -20.96,-1506.33l645.44 0c-20.2,514.05 -30.31,1008.6 -30.31,1486.11 0,417.59 53.63,703.78 160.18,858.55 105.73,154.69 269.83,232.51 491.47,232.51 232.51,0 400.52,-77.05 503.94,-230.97 103.44,-154.77 154.71,-442.5 154.71,-864.78 0,-463.48 -10.09,-957.25 -29.51,-1481.41l617.45 0zm2770.04 777.65c0,362.36 -134.57,630.65 -404.38,804.08 -269.83,172.67 -600.37,259.74 -992.28,259.74 -71.57,0 -122.14,-1.54 -152.45,-4.63 0,285.42 8.55,661.74 24.92,1129.92l-640.01 0c19.44,-438.56 29.55,-955.71 29.55,-1551.44 0,-546.68 -10.11,-1018.71 -29.55,-1415.32l396.53 0c56.07,0 164.12,-1.54 323.52,-6.25 159.46,-4.61 297.13,-7.01 414.49,-7.01 288.58,0 531.95,65.4 731,196.03 199.12,130.63 298.67,328.91 298.67,594.89zm-587.94 125.24c0,-325.14 -215.37,-487.62 -647,-487.62 -107.35,0 -221.64,10.87 -341.4,34.25 16.36,286.96 24.92,611.99 24.92,975.13 38.08,2.32 81.66,3.94 132.17,3.94 554.47,0 831.32,-174.99 831.32,-525.7zm3763.93 525.7c0,466.56 -142.36,853.07 -428.48,1160.23 -285.4,306.38 -638.51,459.63 -1059.19,459.63 -401.32,0 -736.45,-140.76 -1007.06,-422.3 -270.61,-281.48 -405.18,-639.99 -405.18,-1073.94 0,-466.64 142.28,-853.07 427.7,-1160.29 286.18,-306.4 639.23,-459.54 1059.97,-459.54 400.46,0 736.47,139.96 1007.06,421.44 269.83,280.78 405.18,639.23 405.18,1074.78zm-628.34 66.09c0,-317.35 -81.7,-574.75 -244.24,-772.26 -162.5,-197.5 -363.14,-296.29 -601.12,-296.29 -222.4,0 -410.57,99.56 -565.36,298.6 -154.77,199.12 -232.49,450.29 -232.49,754.35 0,315.73 81.66,573.13 244.98,771.42 163.28,197.57 363.16,297.13 600.37,297.13 221.64,0 409.79,-99.56 565.34,-299.44 154.71,-199.82 232.53,-451.07 232.53,-753.51zm3533.62 1472.08l-674.21 0c-176.53,-537.35 -311.79,-869.42 -405.86,-995.44 -94.19,-125.93 -245.8,-188.93 -455.77,-188.93 -87.85,0 -171.83,0.78 -252.73,1.54 0,390.37 7.03,784.68 20.22,1182.83l-632.97 0c19.42,-458.85 29.53,-975.99 29.53,-1551.44 0,-552.91 -10.11,-1024.97 -29.53,-1415.32l394.21 0c45.14,0 140.74,-1.54 285.42,-6.25 145.44,-4.61 279.16,-7.01 402.86,-7.01 696.75,0 1045.14,238.74 1045.14,715.49 0,377.95 -199.1,641.52 -596.49,790.06l0 34.25c153.23,42.8 287.71,162.56 402.86,359.28 115.84,196.72 271.39,556.79 467.32,1080.95zm-854.59 -2095.81c0,-302.54 -194.43,-453.37 -583.24,-453.37 -142.36,0 -269.05,10.11 -377.93,31.93 16.32,234.83 24.9,541.98 24.9,919.93 83.2,3.08 153.93,4.7 211.45,4.7 483.76,0 724.82,-168.04 724.82,-503.18zm3308.14 -870.96l-16.34 489.91c-303.22,-22.6 -589.37,-34.23 -858.53,-34.23 -3.1,287.71 -4.63,607.36 -4.63,959.63 0,546.68 8.57,1063.85 24.92,1551.44l-637.67 0c19.42,-482.9 29.53,-1000.05 29.53,-1551.44 0,-346.02 -3.1,-666.44 -9.33,-959.63 -213.85,0 -507.82,12.49 -881.15,36.54l17.9 -492.23 2335.31 0zm2453.57 0l-16.36 489.91c-303.2,-22.6 -589.39,-34.23 -858.53,-34.23 -3.1,287.71 -4.63,607.36 -4.63,959.63 0,546.68 8.57,1063.85 24.92,1551.44l-637.67 0c19.44,-482.9 29.53,-1000.05 29.53,-1551.44 0,-346.02 -3.08,-666.44 -9.33,-959.63 -213.85,0 -507.82,12.49 -881.15,36.54l17.9 -492.23 2335.33 0zm2335.33 2465.2l-18.66 501.56 -1938.64 0c19.44,-458.85 29.55,-975.99 29.55,-1551.44 0,-552.91 -10.11,-1024.97 -29.55,-1415.32l1850.03 0 -24.92 499.25c-455.69,-24.14 -869.4,-36.54 -1239.55,-36.54 14.72,211.53 22.52,460.38 22.52,747.34 317.31,0 657.11,-8.57 1018.79,-24.92l0 475.97c-355.45,-14.81 -695.31,-22.6 -1018.79,-22.6 0,308.02 6.23,597.27 18.64,865.56 416.07,0 859.33,-12.41 1330.58,-38.86zm2626.14 -38.1l-38.1 523.32c-216.14,52.13 -428.45,77.8 -638.45,77.8 -520.98,0 -917.61,-143.9 -1190.6,-431.61 -272.15,-287.74 -408.26,-637.69 -408.26,-1049.1 0,-426.94 144.68,-798.63 433.93,-1114.34 289.27,-315.73 685.88,-473.59 1190.62,-473.59 185.08,0 360.04,20.98 525.7,63.7l-79.34 526.5c-179.6,-58.3 -350.73,-87.07 -514.85,-87.07 -308.71,0 -538.11,98 -688.18,293.19 -150.85,195.19 -225.52,432.39 -225.52,711.56 0,285.42 89.41,533.43 267.45,742.64 178.9,209.99 428.54,314.95 750.52,314.95 188.93,0 393.45,-32.63 615.07,-97.94z"/>
   </g>
   <path class="fil3" d="M1047.97 13869.09c-85.37,0 -160.32,-18.81 -225.15,-56.72 -64.82,-37.9 -114.88,-91.73 -150.48,-161.19 -35.58,-69.44 -53.52,-150.19 -53.52,-241.64l0 -338.29c0,-91.44 17.94,-172.18 53.52,-241.61 35.6,-69.46 85.66,-123.29 150.48,-161.47 64.82,-38.2 139.78,-57.3 225.15,-57.3 70.61,0 135.72,15.32 195.04,45.42 59.31,30.39 108.79,72.92 148.74,128.48 39.93,55.29 66.83,119.52 81.02,192.44l0 0 -177.39 0 0 0c-10.7,-38.49 -28.65,-72.92 -53.83,-103.01 -25.18,-30.39 -54.69,-53.54 -88.55,-70.03 -33.86,-16.2 -68.86,-24.61 -105.04,-24.61 -50.37,0 -94.35,12.16 -132.25,36.46 -37.92,24.32 -67.43,58.47 -88.26,102.17 -20.84,43.97 -31.25,94.91 -31.25,153.06l0 338.29c0,57.58 10.42,108.52 31.25,152.51 20.84,44.27 50.34,78.13 88.26,102.15 37.9,24.01 81.88,36.17 132.25,36.17 36.75,0 71.75,-7.53 105.61,-22.87 33.57,-15.34 62.79,-37.9 87.98,-68 25.18,-29.8 43.13,-65.4 53.83,-106.78l0 0 177.39 0 0 0c-14.19,72.92 -41.38,137.17 -81.6,192.44 -39.95,55.55 -89.72,98.39 -149.05,128.48 -59.33,30.39 -124.13,45.44 -194.16,45.44z"/>
   <path id="_1" class="fil3" d="M2624.05 12623.6l147.28 0 454.62 1232.76 -186.66 0 -341.75 -994.59 -341.46 994.59 -186.66 0 454.62 -1232.76zm-245.12 797.83l648.52 0 0 164.36 -648.52 0 0 -164.36z"/>
   <path id="_2" class="fil3" d="M4032.86 12623.6l173.04 0 0 1232.76 -173.04 0 0 -1232.76zm86.52 1068.4l705.51 0 0 164.36 -705.51 0 0 -164.36z"/>
   <path id="_3" class="fil3" d="M5648.58 12623.6l173.04 0 0 1232.76 -173.04 0 0 -1232.76zm83.92 1068.4l708.11 0 0 164.36 -708.11 0 0 -164.36zm0 -529.86l614.64 0 0 164.36 -614.64 0 0 -164.36zm0 -538.54l708.11 0 0 164.67 -708.11 0 0 -164.67z"/>
   <polygon id="_4" class="fil3" points="7306.84,12623.6 7463.68,12623.6 8066.45,13576.54 8046.21,13598.52 8046.21,12623.6 8217.5,12623.6 8217.5,13855.5 8058.94,13855.5 7457.9,12917.03 7478.14,12895.05 7478.14,13855.5 7306.84,13855.5 "/>
   <path id="_5" class="fil3" d="M9260.27 13692l278.96 0c90.87,0 161.47,-23.73 211.24,-70.89 50.06,-47.17 75.24,-113.73 75.24,-199.68l0 -362.87c0,-85.97 -25.18,-152.51 -75.24,-199.68 -49.77,-47.17 -120.38,-70.61 -211.24,-70.61l-278.96 0 0 -164.67 273.75 0c98.97,0 183.46,17.37 253.49,51.8 70.03,34.45 123.58,84.8 160.32,150.77 36.75,66.28 54.98,145.85 54.98,239.32l0 349.28c0,93.18 -18.23,172.77 -54.98,239.03 -36.75,65.99 -90.29,116.34 -160.9,150.77 -70.32,34.43 -154.83,51.8 -253.8,51.8l-272.87 0 0 -164.36zm-117.2 -1068.4l173.04 0 0 1232.76 -173.04 0 0 -1232.76z"/>
   <path id="_6" class="fil3" d="M11188.22 12623.6l147.28 0 454.62 1232.76 -186.66 0 -341.75 -994.59 -341.46 994.59 -186.66 0 454.62 -1232.76zm-245.12 797.83l648.52 0 0 164.36 -648.52 0 0 -164.36z"/>
   <path id="_7" class="fil3" d="M12672.57 13170.54l420.46 0c32.71,0 61.93,-7.81 87.4,-23.75 25.45,-15.91 45.14,-38.18 59.02,-67.41 13.62,-29.24 20.55,-62.51 20.55,-100.42l0 0c0,-37.92 -6.93,-71.49 -20.55,-100.42 -13.88,-29.22 -33.57,-51.8 -58.73,-67.43 -24.9,-15.91 -54.41,-23.73 -87.69,-23.73l-420.46 0 0 -164.65 413.81 0c71.18,0 133.69,14.77 187.8,44.27 53.81,29.22 95.79,70.89 125.3,125.01 29.8,53.83 44.56,116.34 44.56,186.94l0 0c0,70.61 -15.05,132.82 -44.85,186.94 -30.1,53.81 -72.06,95.48 -125.89,125.01 -54.1,29.22 -116.32,43.99 -186.92,43.99l-413.81 0 0 -164.36zm-75.53 -547.81l173.04 0 0 1233.63 -173.04 0 0 -1233.63zm411.21 673.97l172.18 -38.78 315.42 598.44 -205.17 0 -282.42 -559.66z"/>
   <polygon id="_8" class="fil3" points="14522.39,13856.36 14349.35,13856.36 14349.35,12623.6 14522.39,12623.6 "/>
   <path id="_9" class="fil3" d="M15855.97 13869.09c-85.95,0 -161.76,-18.81 -227.44,-56.44 -65.4,-37.61 -116.05,-90.58 -152.22,-159.44 -35.87,-68.58 -53.81,-148.16 -53.81,-238.46l0 -349.28c0,-90.58 17.94,-170.15 53.81,-238.74 36.17,-68.58 86.83,-121.81 152.22,-159.44 65.68,-37.61 141.5,-56.42 227.44,-56.42 85.66,0 161.47,18.81 227.18,56.42 65.4,37.63 116.32,90.87 152.2,159.44 35.89,68.6 53.83,148.16 53.83,238.74l0 349.28c0,90.29 -17.94,169.88 -53.83,238.46 -35.89,68.86 -86.81,121.83 -152.2,159.44 -65.7,37.63 -141.52,56.44 -227.18,56.44zm0 -170.46c50.65,0 95.5,-11.28 134.28,-34.43 38.78,-22.87 68.58,-55.27 89.7,-97.22 21.43,-42.24 31.85,-90.87 31.85,-146.42l0 -361.15c0,-55.27 -10.42,-104.18 -31.85,-146.13 -21.12,-42.27 -50.92,-74.67 -89.7,-97.53 -38.78,-22.87 -83.63,-34.43 -134.28,-34.43 -50.92,0 -95.77,11.57 -134.55,34.43 -38.78,22.87 -68.6,55.27 -89.72,97.53 -21.41,41.96 -31.83,90.87 -31.83,146.13l0 361.15c0,55.55 10.42,104.18 31.83,146.42 21.12,41.96 50.94,74.36 89.72,97.22 38.78,23.15 83.63,34.43 134.55,34.43z"/>
   <path id="_10" class="fil3" d="M18059.15 13869.09c-85.37,0 -160.32,-18.81 -225.15,-56.72 -64.82,-37.9 -114.88,-91.73 -150.48,-161.19 -35.58,-69.44 -53.52,-150.19 -53.52,-241.64l0 -338.29c0,-91.44 17.94,-172.18 53.52,-241.61 35.6,-69.46 85.66,-123.29 150.48,-161.47 64.82,-38.2 139.78,-57.3 225.15,-57.3 70.61,0 135.72,15.32 195.04,45.42 59.31,30.39 108.79,72.92 148.74,128.48 39.93,55.29 66.83,119.52 81.02,192.44l0 0 -177.39 0 0 0c-10.7,-38.49 -28.65,-72.92 -53.83,-103.01 -25.18,-30.39 -54.69,-53.54 -88.55,-70.03 -33.86,-16.2 -68.86,-24.61 -105.04,-24.61 -50.37,0 -94.35,12.16 -132.25,36.46 -37.92,24.32 -67.43,58.47 -88.26,102.17 -20.84,43.97 -31.25,94.91 -31.25,153.06l0 338.29c0,57.58 10.42,108.52 31.25,152.51 20.84,44.27 50.34,78.13 88.26,102.15 37.9,24.01 81.88,36.17 132.25,36.17 36.75,0 71.75,-7.53 105.61,-22.87 33.57,-15.34 62.79,-37.9 87.98,-68 25.18,-29.8 43.13,-65.4 53.83,-106.78l0 0 177.39 0 0 0c-14.19,72.92 -41.38,137.17 -81.6,192.44 -39.95,55.55 -89.72,98.39 -149.05,128.48 -59.33,30.39 -124.13,45.44 -194.16,45.44z"/>
   <path id="_11" class="fil3" d="M19724.34 13869.09c-85.95,0 -161.76,-18.81 -227.44,-56.44 -65.4,-37.61 -116.05,-90.58 -152.22,-159.44 -35.87,-68.58 -53.81,-148.16 -53.81,-238.46l0 -349.28c0,-90.58 17.94,-170.15 53.81,-238.74 36.17,-68.58 86.83,-121.81 152.22,-159.44 65.68,-37.61 141.5,-56.42 227.44,-56.42 85.66,0 161.47,18.81 227.18,56.42 65.4,37.63 116.32,90.87 152.2,159.44 35.89,68.6 53.83,148.16 53.83,238.74l0 349.28c0,90.29 -17.94,169.88 -53.83,238.46 -35.89,68.86 -86.81,121.83 -152.2,159.44 -65.7,37.63 -141.52,56.44 -227.18,56.44zm0 -170.46c50.65,0 95.5,-11.28 134.28,-34.43 38.78,-22.87 68.58,-55.27 89.7,-97.22 21.43,-42.24 31.85,-90.87 31.85,-146.42l0 -361.15c0,-55.27 -10.42,-104.18 -31.85,-146.13 -21.12,-42.27 -50.92,-74.67 -89.7,-97.53 -38.78,-22.87 -83.63,-34.43 -134.28,-34.43 -50.92,0 -95.77,11.57 -134.55,34.43 -38.78,22.87 -68.6,55.27 -89.72,97.53 -21.41,41.96 -31.83,90.87 -31.83,146.13l0 361.15c0,55.55 10.42,104.18 31.83,146.42 21.12,41.96 50.94,74.36 89.72,97.22 38.78,23.15 83.63,34.43 134.55,34.43z"/>
   <path id="_12" class="fil3" d="M21129.7 13213.65l394.13 0c37.34,0 70.03,-8.67 98.39,-26.33 28.36,-17.37 50.06,-42.24 65.68,-74.38 15.63,-32.4 23.44,-69.44 23.44,-111.11l0 0c0,-42.55 -7.81,-79.88 -23.44,-111.99 -15.63,-32.13 -37.32,-57.3 -65.68,-74.95 -28.36,-17.94 -61.05,-26.62 -98.39,-26.62l-394.13 0 0 -164.67 388.34 0c73.5,0 138.03,15.63 194.18,47.19 55.84,31.25 99.25,75.53 129.93,132.52 30.95,57.3 46.28,123.29 46.28,198.53l0 0c0,75.24 -15.34,141.21 -46.28,197.93 -30.68,56.72 -74.09,100.69 -129.93,131.94 -56.15,30.97 -120.68,46.59 -194.18,46.59l-388.34 0 0 -164.65zm-89.12 -590.05l173.04 0 0 1232.76 -173.04 0 0 -1232.76z"/>
   <path id="_13" class="fil3" d="M23001.81 12623.6l147.28 0 454.62 1232.76 -186.66 0 -341.75 -994.59 -341.46 994.59 -186.66 0 454.62 -1232.76zm-245.12 797.83l648.52 0 0 164.36 -648.52 0 0 -164.36z"/>
   <path id="_14" class="fil3" d="M24832.83 13706.17l429.73 -572.97c24.88,-32.69 44.27,-66.83 58.16,-102.15 13.88,-35.31 20.84,-68.29 20.84,-98.68l0 -1.74c0,-49.2 -14.46,-87.38 -43.41,-114.59 -28.65,-26.91 -69.72,-40.5 -122.69,-40.5 -50.34,0 -91.15,14.74 -122.12,44.27 -31.25,29.8 -50.06,71.75 -57.01,126.16l0 0.57 -178.82 0 0 -0.57c10.13,-70.89 30.97,-131.08 62.51,-181.14 31.25,-50.08 71.75,-88.26 121.53,-114.31 49.79,-26.33 107.09,-39.64 172.2,-39.64 73.5,0 136,12.71 188.09,37.9 52.09,25.18 91.73,61.64 118.63,109.67 27.21,48.05 40.81,105.92 40.81,173.92l0 0.86c0,43.41 -8.96,88.86 -27.19,136.31 -17.94,47.45 -43.13,93.47 -75.53,137.46l-356.8 484.99 466.19 0 0 164.36 -695.09 0 0 -150.19z"/>
   <path id="_15" class="fil3" d="M26720.85 13869.09c-115.17,0 -202.57,-30.97 -262.18,-92.32 -59.9,-61.62 -89.7,-147.57 -89.7,-257.84l0 -560.52c0,-110.53 30.08,-196.79 89.99,-258.12 59.9,-61.36 147.3,-92.02 261.9,-92.02 115.45,0 202.86,30.66 262.47,91.73 59.61,61.05 89.41,147.28 89.41,258.41l0 560.52c0,110.84 -29.8,196.79 -89.7,258.14 -59.9,61.34 -147.3,92.02 -262.18,92.02zm0 -164.36c61.05,0 106.21,-16.2 135.43,-48.05 28.94,-31.83 43.41,-77.84 43.41,-137.75l0 -560.52c0,-59.9 -14.19,-105.63 -43.13,-137.75 -28.94,-31.83 -74.07,-47.74 -135.72,-47.74 -61.64,0 -106.78,15.91 -135.43,47.74 -28.94,32.11 -43.41,77.84 -43.41,137.75l0 560.52c0,59.9 14.48,105.92 43.7,137.75 29.22,31.85 74.09,48.05 135.14,48.05z"/>
   <path id="_16" class="fil3" d="M27929.13 13706.17l429.73 -572.97c24.88,-32.69 44.27,-66.83 58.16,-102.15 13.88,-35.31 20.84,-68.29 20.84,-98.68l0 -1.74c0,-49.2 -14.46,-87.38 -43.41,-114.59 -28.65,-26.91 -69.72,-40.5 -122.69,-40.5 -50.34,0 -91.15,14.74 -122.12,44.27 -31.25,29.8 -50.06,71.75 -57.01,126.16l0 0.57 -178.82 0 0 -0.57c10.13,-70.89 30.97,-131.08 62.51,-181.14 31.25,-50.08 71.75,-88.26 121.53,-114.31 49.79,-26.33 107.09,-39.64 172.2,-39.64 73.5,0 136,12.71 188.09,37.9 52.09,25.18 91.73,61.64 118.63,109.67 27.21,48.05 40.81,105.92 40.81,173.92l0 0.86c0,43.41 -8.96,88.86 -27.19,136.31 -17.94,47.45 -43.13,93.47 -75.53,137.46l-356.8 484.99 466.19 0 0 164.36 -695.09 0 0 -150.19z"/>
   <path id="_17" class="fil3" d="M29446.76 13706.17l429.73 -572.97c24.88,-32.69 44.27,-66.83 58.16,-102.15 13.88,-35.31 20.84,-68.29 20.84,-98.68l0 -1.74c0,-49.2 -14.46,-87.38 -43.41,-114.59 -28.65,-26.91 -69.72,-40.5 -122.69,-40.5 -50.34,0 -91.15,14.74 -122.12,44.27 -31.25,29.8 -50.06,71.75 -57.01,126.16l0 0.57 -178.82 0 0 -0.57c10.13,-70.89 30.97,-131.08 62.51,-181.14 31.25,-50.08 71.75,-88.26 121.53,-114.31 49.79,-26.33 107.09,-39.64 172.2,-39.64 73.5,0 136,12.71 188.09,37.9 52.09,25.18 91.73,61.64 118.63,109.67 27.21,48.05 40.81,105.92 40.81,173.92l0 0.86c0,43.41 -8.96,88.86 -27.19,136.31 -17.94,47.45 -43.13,93.47 -75.53,137.46l-356.8 484.99 466.19 0 0 164.36 -695.09 0 0 -150.19z"/>
  </g>
 </g>
</svg>
